# xmcd
#
# Track frame offsets:
#	182
#	11455
#	23735
#	35147
#	48330
#	60560
#	72310
#	81572
#	91040
#	106055
#	115670
#	127835
#	140360
#	152740
#	162835
#	175185
#	186017
#	198697
#	211375
#	222402
#
# Disc length: 3135 seconds
#
# Revision: 0
# Processed by: cddbd v1.5.1PL0 Copyright (c) Steve Scherf et al.
# Submitted via: dBpowerAMP V4.0
#
DISCID=100c3d14
DTITLE=Gladys Knight and the Pips - Reflections of Gladys Knight and the Pips
DYEAR=1997
DGENRE=Blues
TTITLE0=Gladys Knight and the Pips - How Do You Say Goodbye
TTITLE1=Gladys Knight and the Pips - Jungle Love
TTITLE2=Gladys Knight and the Pips - I Want That Kind of Love
TTITLE3=Gladys Knight and the Pips - Before Now After Then
TTITLE4=Gladys Knight and the Pips - I Can't Stand By
TTITLE5=Gladys Knight and the Pips - What Shall I Do
TTITLE6=Gladys Knight and the Pips - Every Beat Of My Heart
TTITLE7=Gladys Knight and the Pips - Room In Your Heart 
TTITLE8=Gladys Knight and the Pips - Gues Who
TTITLE9=Gladys Knight and the Pips - Running Around
TTITLE10=Gladys Knight and the Pips - Darlin'
TTITLE11=Gladys Knight and the Pips - Letter Full of Tears
TTITLE12=Gladys Knight and the Pips - Ypu Broke Your Promise
TTITLE13=Gladys Knight and the Pips - Operation
TTITLE14=Gladys Knight and the Pips - Trust In You
TTITLE15=Gladys Knight and the Pips - Morning
TTITLE16=Gladys Knight and the Pips - Love Me Again
TTITLE17=Gladys Knight and the Pips - Come See About Me
TTITLE18=Gladys Knight and the Pips - One More Lonely Night
TTITLE19=Gladys Knight and the Pips - Really Didn't Mean It
EXTD=Artist: Gladys Knight and the Pips\nTitle: Reflections of Gladys Knight and the Pips 
EXTT0=
EXTT1=
EXTT2=
EXTT3=
EXTT4=
EXTT5=
EXTT6=
EXTT7=
EXTT8=
EXTT9=
EXTT10=
EXTT11=
EXTT12=
EXTT13=
EXTT14=
EXTT15=
EXTT16=
EXTT17=
EXTT18=
EXTT19=
PLAYORDER=
